<svg xmlns="http://www.w3.org/2000/svg" xmlns:xlink="http://www.w3.org/1999/xlink" contentStyleType="text/css" height="1296px" preserveAspectRatio="none" style="width:1275px;height:1296px;background:#FFFFFF;" version="1.1" viewBox="0 0 1275 1296" width="1275px" zoomAndPan="magnify"><defs/><g><line style="stroke:#181818;stroke-width:0.5;stroke-dasharray:5.0,5.0;" x1="47" x2="47" y1="36.4883" y2="1261.0469"/><line style="stroke:#181818;stroke-width:0.5;stroke-dasharray:5.0,5.0;" x1="369" x2="369" y1="36.4883" y2="1261.0469"/><line style="stroke:#181818;stroke-width:0.5;stroke-dasharray:5.0,5.0;" x1="715.5" x2="715.5" y1="36.4883" y2="1261.0469"/><line style="stroke:#181818;stroke-width:0.5;stroke-dasharray:5.0,5.0;" x1="995.5" x2="995.5" y1="36.4883" y2="1261.0469"/><rect fill="#E2E2F0" height="30.4883" rx="2.5" ry="2.5" style="stroke:#181818;stroke-width:0.5;" width="85" x="5" y="5"/><text fill="#000000" font-family="sans-serif" font-size="14" lengthAdjust="spacing" textLength="71" x="12" y="25.5352">Consumer</text><rect fill="#E2E2F0" height="30.4883" rx="2.5" ry="2.5" style="stroke:#181818;stroke-width:0.5;" width="85" x="5" y="1260.0469"/><text fill="#000000" font-family="sans-serif" font-size="14" lengthAdjust="spacing" textLength="71" x="12" y="1280.582">Consumer</text><rect fill="#E2E2F0" height="30.4883" rx="2.5" ry="2.5" style="stroke:#181818;stroke-width:0.5;" width="153" x="293" y="5"/><text fill="#000000" font-family="sans-serif" font-size="14" lengthAdjust="spacing" textLength="139" x="300" y="25.5352">Association Register</text><rect fill="#E2E2F0" height="30.4883" rx="2.5" ry="2.5" style="stroke:#181818;stroke-width:0.5;" width="153" x="293" y="1260.0469"/><text fill="#000000" font-family="sans-serif" font-size="14" lengthAdjust="spacing" textLength="139" x="300" y="1280.582">Association Register</text><rect fill="#E2E2F0" height="30.4883" rx="2.5" ry="2.5" style="stroke:#181818;stroke-width:0.5;" width="226" x="602.5" y="5"/><text fill="#000000" font-family="sans-serif" font-size="14" lengthAdjust="spacing" textLength="212" x="609.5" y="25.5352">Authorization Register (owner)</text><rect fill="#E2E2F0" height="30.4883" rx="2.5" ry="2.5" style="stroke:#181818;stroke-width:0.5;" width="226" x="602.5" y="1260.0469"/><text fill="#000000" font-family="sans-serif" font-size="14" lengthAdjust="spacing" textLength="212" x="609.5" y="1280.582">Authorization Register (owner)</text><rect fill="#E2E2F0" height="30.4883" rx="2.5" ry="2.5" style="stroke:#181818;stroke-width:0.5;" width="134" x="928.5" y="5"/><text fill="#000000" font-family="sans-serif" font-size="14" lengthAdjust="spacing" textLength="120" x="935.5" y="25.5352">Resource (owner)</text><rect fill="#E2E2F0" height="30.4883" rx="2.5" ry="2.5" style="stroke:#181818;stroke-width:0.5;" width="134" x="928.5" y="1260.0469"/><text fill="#000000" font-family="sans-serif" font-size="14" lengthAdjust="spacing" textLength="120" x="935.5" y="1280.582">Resource (owner)</text><polygon fill="#181818" points="357.5,63.7988,367.5,67.7988,357.5,71.7988,361.5,67.7988" style="stroke:#181818;stroke-width:1.0;"/><line style="stroke:#181818;stroke-width:1.0;" x1="47.5" x2="363.5" y1="67.7988" y2="67.7988"/><text fill="#000000" font-family="sans-serif" font-size="13" lengthAdjust="spacing" textLength="210" x="54.5" y="63.0566">/token (get authentication token)</text><line style="stroke:#181818;stroke-width:1.0;" x1="369.5" x2="411.5" y1="97.1094" y2="97.1094"/><line style="stroke:#181818;stroke-width:1.0;" x1="411.5" x2="411.5" y1="97.1094" y2="110.1094"/><line style="stroke:#181818;stroke-width:1.0;" x1="370.5" x2="411.5" y1="110.1094" y2="110.1094"/><polygon fill="#181818" points="380.5,106.1094,370.5,110.1094,380.5,114.1094,376.5,110.1094" style="stroke:#181818;stroke-width:1.0;"/><text fill="#000000" font-family="sans-serif" font-size="13" lengthAdjust="spacing" textLength="138" x="376.5" y="92.3672">check client assertion</text><line style="stroke:#181818;stroke-width:1.0;" x1="369.5" x2="411.5" y1="139.4199" y2="139.4199"/><line style="stroke:#181818;stroke-width:1.0;" x1="411.5" x2="411.5" y1="139.4199" y2="152.4199"/><line style="stroke:#181818;stroke-width:1.0;" x1="370.5" x2="411.5" y1="152.4199" y2="152.4199"/><polygon fill="#181818" points="380.5,148.4199,370.5,152.4199,380.5,156.4199,376.5,152.4199" style="stroke:#181818;stroke-width:1.0;"/><text fill="#000000" font-family="sans-serif" font-size="13" lengthAdjust="spacing" textLength="198" x="376.5" y="134.6777">check consumer still compliant</text><polygon fill="#181818" points="58.5,177.7305,48.5,181.7305,58.5,185.7305,54.5,181.7305" style="stroke:#181818;stroke-width:1.0;"/><line style="stroke:#181818;stroke-width:1.0;" x1="52.5" x2="368.5" y1="181.7305" y2="181.7305"/><text fill="#000000" font-family="sans-serif" font-size="13" lengthAdjust="spacing" textLength="62" x="64.5" y="176.9883">OK: token</text><polygon fill="#181818" points="357.5,207.041,367.5,211.041,357.5,215.041,361.5,211.041" style="stroke:#181818;stroke-width:1.0;"/><line style="stroke:#181818;stroke-width:1.0;" x1="47.5" x2="363.5" y1="211.041" y2="211.041"/><text fill="#000000" font-family="sans-serif" font-size="13" lengthAdjust="spacing" textLength="298" x="54.5" y="206.2988">/party (with token get owner party information)</text><line style="stroke:#181818;stroke-width:1.0;" x1="369.5" x2="411.5" y1="240.3516" y2="240.3516"/><line style="stroke:#181818;stroke-width:1.0;" x1="411.5" x2="411.5" y1="240.3516" y2="253.3516"/><line style="stroke:#181818;stroke-width:1.0;" x1="370.5" x2="411.5" y1="253.3516" y2="253.3516"/><polygon fill="#181818" points="380.5,249.3516,370.5,253.3516,380.5,257.3516,376.5,253.3516" style="stroke:#181818;stroke-width:1.0;"/><text fill="#000000" font-family="sans-serif" font-size="13" lengthAdjust="spacing" textLength="77" x="376.5" y="235.6094">check token</text><polygon fill="#181818" points="58.5,278.6621,48.5,282.6621,58.5,286.6621,54.5,282.6621" style="stroke:#181818;stroke-width:1.0;"/><line style="stroke:#181818;stroke-width:1.0;" x1="52.5" x2="368.5" y1="282.6621" y2="282.6621"/><text fill="#000000" font-family="sans-serif" font-size="13" lengthAdjust="spacing" textLength="87" x="64.5" y="277.9199">OK: party info</text><line style="stroke:#181818;stroke-width:1.0;" x1="47.5" x2="89.5" y1="311.9727" y2="311.9727"/><line style="stroke:#181818;stroke-width:1.0;" x1="89.5" x2="89.5" y1="311.9727" y2="324.9727"/><line style="stroke:#181818;stroke-width:1.0;" x1="48.5" x2="89.5" y1="324.9727" y2="324.9727"/><polygon fill="#181818" points="58.5,320.9727,48.5,324.9727,58.5,328.9727,54.5,324.9727" style="stroke:#181818;stroke-width:1.0;"/><text fill="#000000" font-family="sans-serif" font-size="13" lengthAdjust="spacing" textLength="217" x="54.5" y="307.2305">extract Authorization Register URL</text><polygon fill="#181818" points="703.5,350.2832,713.5,354.2832,703.5,358.2832,707.5,354.2832" style="stroke:#181818;stroke-width:1.0;"/><line style="stroke:#181818;stroke-width:1.0;" x1="47.5" x2="709.5" y1="354.2832" y2="354.2832"/><text fill="#000000" font-family="sans-serif" font-size="13" lengthAdjust="spacing" textLength="210" x="54.5" y="349.541">/token (get authentication token)</text><line style="stroke:#181818;stroke-width:1.0;" x1="715.5" x2="757.5" y1="383.5938" y2="383.5938"/><line style="stroke:#181818;stroke-width:1.0;" x1="757.5" x2="757.5" y1="383.5938" y2="396.5938"/><line style="stroke:#181818;stroke-width:1.0;" x1="716.5" x2="757.5" y1="396.5938" y2="396.5938"/><polygon fill="#181818" points="726.5,392.5938,716.5,396.5938,726.5,400.5938,722.5,396.5938" style="stroke:#181818;stroke-width:1.0;"/><text fill="#000000" font-family="sans-serif" font-size="13" lengthAdjust="spacing" textLength="138" x="722.5" y="378.8516">check client assertion</text><polygon fill="#181818" points="380.5,421.9043,370.5,425.9043,380.5,429.9043,376.5,425.9043" style="stroke:#181818;stroke-width:1.0;"/><line style="stroke:#181818;stroke-width:1.0;" x1="374.5" x2="714.5" y1="425.9043" y2="425.9043"/><text fill="#000000" font-family="sans-serif" font-size="13" lengthAdjust="spacing" textLength="210" x="386.5" y="421.1621">/token (get authentication token)</text><line style="stroke:#181818;stroke-width:1.0;" x1="369.5" x2="411.5" y1="455.2148" y2="455.2148"/><line style="stroke:#181818;stroke-width:1.0;" x1="411.5" x2="411.5" y1="455.2148" y2="468.2148"/><line style="stroke:#181818;stroke-width:1.0;" x1="370.5" x2="411.5" y1="468.2148" y2="468.2148"/><polygon fill="#181818" points="380.5,464.2148,370.5,468.2148,380.5,472.2148,376.5,468.2148" style="stroke:#181818;stroke-width:1.0;"/><text fill="#000000" font-family="sans-serif" font-size="13" lengthAdjust="spacing" textLength="138" x="376.5" y="450.4727">check client assertion</text><line style="stroke:#181818;stroke-width:1.0;" x1="369.5" x2="411.5" y1="497.5254" y2="497.5254"/><line style="stroke:#181818;stroke-width:1.0;" x1="411.5" x2="411.5" y1="497.5254" y2="510.5254"/><line style="stroke:#181818;stroke-width:1.0;" x1="370.5" x2="411.5" y1="510.5254" y2="510.5254"/><polygon fill="#181818" points="380.5,506.5254,370.5,510.5254,380.5,514.5254,376.5,510.5254" style="stroke:#181818;stroke-width:1.0;"/><text fill="#000000" font-family="sans-serif" font-size="13" lengthAdjust="spacing" textLength="153" x="376.5" y="492.7832">check AR still compliant</text><polygon fill="#181818" points="703.5,535.8359,713.5,539.8359,703.5,543.8359,707.5,539.8359" style="stroke:#181818;stroke-width:1.0;"/><line style="stroke:#181818;stroke-width:1.0;" x1="369.5" x2="709.5" y1="539.8359" y2="539.8359"/><text fill="#000000" font-family="sans-serif" font-size="13" lengthAdjust="spacing" textLength="62" x="376.5" y="535.0938">OK: token</text><polygon fill="#181818" points="380.5,565.1465,370.5,569.1465,380.5,573.1465,376.5,569.1465" style="stroke:#181818;stroke-width:1.0;"/><line style="stroke:#181818;stroke-width:1.0;" x1="374.5" x2="714.5" y1="569.1465" y2="569.1465"/><text fill="#000000" font-family="sans-serif" font-size="13" lengthAdjust="spacing" textLength="322" x="386.5" y="564.4043">/party (with token get consumer party information)</text><line style="stroke:#181818;stroke-width:1.0;" x1="369.5" x2="411.5" y1="598.457" y2="598.457"/><line style="stroke:#181818;stroke-width:1.0;" x1="411.5" x2="411.5" y1="598.457" y2="611.457"/><line style="stroke:#181818;stroke-width:1.0;" x1="370.5" x2="411.5" y1="611.457" y2="611.457"/><polygon fill="#181818" points="380.5,607.457,370.5,611.457,380.5,615.457,376.5,611.457" style="stroke:#181818;stroke-width:1.0;"/><text fill="#000000" font-family="sans-serif" font-size="13" lengthAdjust="spacing" textLength="77" x="376.5" y="593.7148">check token</text><polygon fill="#181818" points="703.5,636.7676,713.5,640.7676,703.5,644.7676,707.5,640.7676" style="stroke:#181818;stroke-width:1.0;"/><line style="stroke:#181818;stroke-width:1.0;" x1="369.5" x2="709.5" y1="640.7676" y2="640.7676"/><text fill="#000000" font-family="sans-serif" font-size="13" lengthAdjust="spacing" textLength="87" x="376.5" y="636.0254">OK: party info</text><line style="stroke:#181818;stroke-width:1.0;" x1="715.5" x2="757.5" y1="670.0781" y2="670.0781"/><line style="stroke:#181818;stroke-width:1.0;" x1="757.5" x2="757.5" y1="670.0781" y2="683.0781"/><line style="stroke:#181818;stroke-width:1.0;" x1="716.5" x2="757.5" y1="683.0781" y2="683.0781"/><polygon fill="#181818" points="726.5,679.0781,716.5,683.0781,726.5,687.0781,722.5,683.0781" style="stroke:#181818;stroke-width:1.0;"/><text fill="#000000" font-family="sans-serif" font-size="13" lengthAdjust="spacing" textLength="266" x="722.5" y="665.3359">check consumer party info for compliance</text><polygon fill="#181818" points="58.5,708.3887,48.5,712.3887,58.5,716.3887,54.5,712.3887" style="stroke:#181818;stroke-width:1.0;"/><line style="stroke:#181818;stroke-width:1.0;" x1="52.5" x2="714.5" y1="712.3887" y2="712.3887"/><text fill="#000000" font-family="sans-serif" font-size="13" lengthAdjust="spacing" textLength="62" x="64.5" y="707.6465">OK: token</text><polygon fill="#181818" points="703.5,737.6992,713.5,741.6992,703.5,745.6992,707.5,741.6992" style="stroke:#181818;stroke-width:1.0;"/><line style="stroke:#181818;stroke-width:1.0;" x1="47.5" x2="709.5" y1="741.6992" y2="741.6992"/><text fill="#000000" font-family="sans-serif" font-size="13" lengthAdjust="spacing" textLength="287" x="54.5" y="736.957">/delegation (with token and delegation mask)</text><line style="stroke:#181818;stroke-width:1.0;" x1="715.5" x2="757.5" y1="771.0098" y2="771.0098"/><line style="stroke:#181818;stroke-width:1.0;" x1="757.5" x2="757.5" y1="771.0098" y2="784.0098"/><line style="stroke:#181818;stroke-width:1.0;" x1="716.5" x2="757.5" y1="784.0098" y2="784.0098"/><polygon fill="#181818" points="726.5,780.0098,716.5,784.0098,726.5,788.0098,722.5,784.0098" style="stroke:#181818;stroke-width:1.0;"/><text fill="#000000" font-family="sans-serif" font-size="13" lengthAdjust="spacing" textLength="77" x="722.5" y="766.2676">check token</text><line style="stroke:#181818;stroke-width:1.0;" x1="715.5" x2="757.5" y1="813.3203" y2="813.3203"/><line style="stroke:#181818;stroke-width:1.0;" x1="757.5" x2="757.5" y1="813.3203" y2="826.3203"/><line style="stroke:#181818;stroke-width:1.0;" x1="716.5" x2="757.5" y1="826.3203" y2="826.3203"/><polygon fill="#181818" points="726.5,822.3203,716.5,826.3203,726.5,830.3203,722.5,826.3203" style="stroke:#181818;stroke-width:1.0;"/><text fill="#000000" font-family="sans-serif" font-size="13" lengthAdjust="spacing" textLength="198" x="722.5" y="808.5781">check delegation mask policies</text><polygon fill="#181818" points="58.5,851.6309,48.5,855.6309,58.5,859.6309,54.5,855.6309" style="stroke:#181818;stroke-width:1.0;"/><line style="stroke:#181818;stroke-width:1.0;" x1="52.5" x2="714.5" y1="855.6309" y2="855.6309"/><text fill="#000000" font-family="sans-serif" font-size="13" lengthAdjust="spacing" textLength="151" x="64.5" y="850.8887">OK: delegation evidence</text><polygon fill="#181818" points="983.5,880.9414,993.5,884.9414,983.5,888.9414,987.5,884.9414" style="stroke:#181818;stroke-width:1.0;"/><line style="stroke:#181818;stroke-width:1.0;" x1="47.5" x2="989.5" y1="884.9414" y2="884.9414"/><text fill="#000000" font-family="sans-serif" font-size="13" lengthAdjust="spacing" textLength="210" x="54.5" y="880.1992">/token (get authentication token)</text><line style="stroke:#181818;stroke-width:1.0;" x1="995.5" x2="1037.5" y1="914.252" y2="914.252"/><line style="stroke:#181818;stroke-width:1.0;" x1="1037.5" x2="1037.5" y1="914.252" y2="927.252"/><line style="stroke:#181818;stroke-width:1.0;" x1="996.5" x2="1037.5" y1="927.252" y2="927.252"/><polygon fill="#181818" points="1006.5,923.252,996.5,927.252,1006.5,931.252,1002.5,927.252" style="stroke:#181818;stroke-width:1.0;"/><text fill="#000000" font-family="sans-serif" font-size="13" lengthAdjust="spacing" textLength="138" x="1002.5" y="909.5098">check client assertion</text><polygon fill="#181818" points="380.5,952.5625,370.5,956.5625,380.5,960.5625,376.5,956.5625" style="stroke:#181818;stroke-width:1.0;"/><line style="stroke:#181818;stroke-width:1.0;" x1="374.5" x2="994.5" y1="956.5625" y2="956.5625"/><text fill="#000000" font-family="sans-serif" font-size="13" lengthAdjust="spacing" textLength="251" x="386.5" y="951.8203">/party (get consumer party information)</text><line style="stroke:#181818;stroke-width:1.0;" x1="369.5" x2="411.5" y1="985.873" y2="985.873"/><line style="stroke:#181818;stroke-width:1.0;" x1="411.5" x2="411.5" y1="985.873" y2="998.873"/><line style="stroke:#181818;stroke-width:1.0;" x1="370.5" x2="411.5" y1="998.873" y2="998.873"/><polygon fill="#181818" points="380.5,994.873,370.5,998.873,380.5,1002.873,376.5,998.873" style="stroke:#181818;stroke-width:1.0;"/><text fill="#000000" font-family="sans-serif" font-size="13" lengthAdjust="spacing" textLength="77" x="376.5" y="981.1309">check token</text><polygon fill="#181818" points="983.5,1024.1836,993.5,1028.1836,983.5,1032.1836,987.5,1028.1836" style="stroke:#181818;stroke-width:1.0;"/><line style="stroke:#181818;stroke-width:1.0;" x1="369.5" x2="989.5" y1="1028.1836" y2="1028.1836"/><text fill="#000000" font-family="sans-serif" font-size="13" lengthAdjust="spacing" textLength="87" x="376.5" y="1023.4414">OK: party info</text><line style="stroke:#181818;stroke-width:1.0;" x1="995.5" x2="1037.5" y1="1057.4941" y2="1057.4941"/><line style="stroke:#181818;stroke-width:1.0;" x1="1037.5" x2="1037.5" y1="1057.4941" y2="1070.4941"/><line style="stroke:#181818;stroke-width:1.0;" x1="996.5" x2="1037.5" y1="1070.4941" y2="1070.4941"/><polygon fill="#181818" points="1006.5,1066.4941,996.5,1070.4941,1006.5,1074.4941,1002.5,1070.4941" style="stroke:#181818;stroke-width:1.0;"/><text fill="#000000" font-family="sans-serif" font-size="13" lengthAdjust="spacing" textLength="266" x="1002.5" y="1052.752">check consumer party info for compliance</text><polygon fill="#181818" points="58.5,1095.8047,48.5,1099.8047,58.5,1103.8047,54.5,1099.8047" style="stroke:#181818;stroke-width:1.0;"/><line style="stroke:#181818;stroke-width:1.0;" x1="52.5" x2="994.5" y1="1099.8047" y2="1099.8047"/><text fill="#000000" font-family="sans-serif" font-size="13" lengthAdjust="spacing" textLength="62" x="64.5" y="1095.0625">OK: token</text><polygon fill="#181818" points="983.5,1125.1152,993.5,1129.1152,983.5,1133.1152,987.5,1129.1152" style="stroke:#181818;stroke-width:1.0;"/><line style="stroke:#181818;stroke-width:1.0;" x1="47.5" x2="989.5" y1="1129.1152" y2="1129.1152"/><text fill="#000000" font-family="sans-serif" font-size="13" lengthAdjust="spacing" textLength="338" x="54.5" y="1124.373">/some-resource (with token and delegation evidence)</text><line style="stroke:#181818;stroke-width:1.0;" x1="995.5" x2="1037.5" y1="1158.4258" y2="1158.4258"/><line style="stroke:#181818;stroke-width:1.0;" x1="1037.5" x2="1037.5" y1="1158.4258" y2="1171.4258"/><line style="stroke:#181818;stroke-width:1.0;" x1="996.5" x2="1037.5" y1="1171.4258" y2="1171.4258"/><polygon fill="#181818" points="1006.5,1167.4258,996.5,1171.4258,1006.5,1175.4258,1002.5,1171.4258" style="stroke:#181818;stroke-width:1.0;"/><text fill="#000000" font-family="sans-serif" font-size="13" lengthAdjust="spacing" textLength="77" x="1002.5" y="1153.6836">check token</text><line style="stroke:#181818;stroke-width:1.0;" x1="995.5" x2="1037.5" y1="1200.7363" y2="1200.7363"/><line style="stroke:#181818;stroke-width:1.0;" x1="1037.5" x2="1037.5" y1="1200.7363" y2="1213.7363"/><line style="stroke:#181818;stroke-width:1.0;" x1="996.5" x2="1037.5" y1="1213.7363" y2="1213.7363"/><polygon fill="#181818" points="1006.5,1209.7363,996.5,1213.7363,1006.5,1217.7363,1002.5,1213.7363" style="stroke:#181818;stroke-width:1.0;"/><text fill="#000000" font-family="sans-serif" font-size="13" lengthAdjust="spacing" textLength="166" x="1002.5" y="1195.9941">check delegation evidence</text><polygon fill="#181818" points="58.5,1239.0469,48.5,1243.0469,58.5,1247.0469,54.5,1243.0469" style="stroke:#181818;stroke-width:1.0;"/><line style="stroke:#181818;stroke-width:1.0;" x1="52.5" x2="994.5" y1="1243.0469" y2="1243.0469"/><text fill="#000000" font-family="sans-serif" font-size="13" lengthAdjust="spacing" textLength="53" x="64.5" y="1238.3047">OK: data</text><!--SRC=[pLNBQiCm4BpxAvQUaaFeFOT2wB65Wg4V8EHjiiIMXAGqRR- -iXGxyaEA2otq9h4pqipkM5PCM-AacB1mzoY5EJMexu0Pu9TDeMB8pXZ9YLcI0ahSax4NEBiMHeoJFKXDNqCEhEHPe5vxhb_kHZULQEH9Svn1AYgAJXvi7kAxOGltLXvHm6gF5fYx78KxD1HzPLt4-0cT7v0VWTVaU6q9jVUqXDD9CfRgscqRLPFpCkRsECTyUTe6LJb3RLy-ONKcUmXWQBtvNa2eaNYJkl64HVR2bJTqNOyUYElNMy0Fgncta9ZnQ_ay7DHbq8k6r647jCHm8km_oSAkl9M2JlCW196HPI7ek_kBEUYLJNEG6yfK2JWnVGCunkpvRo0LbWfht0TzSGEOg20gDSmSixcPz7WC61q6IjRkFKAJKnvny9qgR8tE-53qWzGxy92OpNr09_Bojo7nucOpahAmD2M17xqrsPI4xXhPu4Rt_urqKhf1tUXtd9S4P6xw6GCLiwpu1W00]--></g></svg>